<svg xmlns="http://www.w3.org/2000/svg" viewBox="0 0 466.971 466.971" aria-hidden="true">
  <path fill="#b281c7" d="M311.728 258.701c-1.07-2.843-4.243-4.277-7.086-3.208-2.898 1.092-6.213.576-8.641-1.349-6.251-4.953-14.808-5.662-21.746-1.931-1.359.594-2.621 1.469-3.682 2.639-4.019 4.43-3.686 11.28.745 15.299 4.43 4.019 11.28 3.686 15.299-.744 1.69-1.863 2.601-4.154 2.771-6.483 3.514 2.706 7.816 4.127 12.159 4.127 2.354 0 4.72-.415 6.974-1.264 2.841-1.07 4.278-4.243 3.207-7.085ZM193.256 252.119c-6.907-3.617-15.362-2.883-21.557 2.025-2.43 1.923-5.742 2.442-8.642 1.349-2.844-1.072-6.016.365-7.086 3.208-1.071 2.842.365 6.015 3.207 7.086 2.255.849 4.618 1.264 6.974 1.264 4.358 0 8.678-1.43 12.2-4.156.164 2.338 1.076 4.641 2.773 6.512 4.019 4.43 10.869 4.764 15.299.744 4.43-4.019 4.764-10.869.745-15.299-1.121-1.236-2.466-2.141-3.913-2.733ZM243.846 316.637c-2.791 2.679-6.473 4.155-10.365 4.155-3.887 0-7.564-1.476-10.355-4.155-2.192-2.104-5.673-2.033-7.776.159-2.104 2.191-2.032 5.673.159 7.776 4.85 4.655 11.232 7.219 17.973 7.219 6.746 0 13.133-2.564 17.982-7.219 2.191-2.104 2.263-5.585.159-7.776-2.104-2.191-5.586-2.263-7.777-.159ZM398.585 68.386C354.485 24.287 295.852 0 233.485 0s-121 24.287-165.1 68.386C24.287 112.486 0 171.119 0 233.485s24.287 121 68.386 165.099c44.1 44.1 102.733 68.386 165.1 68.386s121-24.287 165.1-68.386c44.099-44.1 68.386-102.733 68.386-165.099S442.684 112.486 398.585 68.386ZM101.633 412.741c11.362-19.671 27.06-36.594 45.659-49.417 22.577 27.997 53.725 43.955 86.21 43.955 32.696 0 63.856-15.91 86.239-43.821 18.559 12.815 34.228 29.694 45.58 49.297-37.98 28.054-83.741 43.216-131.835 43.216-48.102 0-93.87-15.167-131.853-43.23Zm8.543-202.124c0-17.756 3.857-35.314 11.192-51.335 1.175 1.512 2.413 2.969 3.728 4.356.301.317.978.994 1.821 1.797-1.672 4.216-3.027 8.608-4.03 13.15-.654 2.966 1.219 5.902 4.186 6.557.399.088.798.13 1.19.13 2.524 0 4.799-1.749 5.366-4.315 6.94-31.435 33.137-54.654 65.185-57.777 3.023-.295 5.235-2.984 4.94-6.008-.294-3.023-3.002-5.229-6.007-4.94-3.493.34-6.925.891-10.284 1.636-2.685-4.751-6.015-9.176-9.881-13.215 17.155-8.685 36.237-13.257 55.634-13.257 19.548 0 38.761 4.639 56.018 13.455-3.837 4.046-7.1 8.44-9.703 13.023-3.367-.747-6.807-1.301-10.309-1.642-3.016-.289-5.713 1.917-6.007 4.94-.295 3.023 1.917 5.713 4.94 6.008 32.048 3.124 58.244 26.343 65.186 57.777.567 2.567 2.842 4.315 5.366 4.315.393 0 .792-.042 1.19-.13 2.967-.655 4.84-3.59 4.186-6.557-1.003-4.544-2.359-8.937-4.032-13.154.822-.772 1.5-1.448 1.828-1.794 1.272-1.342 2.473-2.748 3.614-4.207 7.29 15.97 11.123 33.489 11.123 51.187 0 3.67-.178 7.337-.5 10.976l-1.084-.787c-6.726-4.877-14.262-8.944-22.404-12.089-8.124-3.128-16.724-5.292-25.562-6.433-31.515-4.073-57.699-22.427-66.707-46.758l-1.049-2.834c-.799-2.158-2.856-3.591-5.157-3.591-2.301 0-4.358 1.432-5.157 3.59l-1.051 2.837c-4.403 11.903-12.91 22.563-24.604 30.827-11.864 8.391-26.424 13.9-42.105 15.931-17.881 2.318-34.465 8.723-47.959 18.525l-2.5 1.816c-.238-4.014-.456-8.028-.456-12.035Zm66.401-93.549c-5.689 2.086-11.098 4.752-16.146 7.945-6.745-15.484-16.12-27.633-23.843-35.936 17.175 4.76 31.659 14.783 39.989 27.991Zm-44.587 37.806c-11.828-13.441-18.8-37.771-10.099-64.897 7.642 7.058 21.189 21.531 29.412 41.707-7.723 6.47-14.279 14.307-19.313 23.19Zm183.678-23.19c8.198-20.1 21.762-34.608 29.414-41.692 8.696 27.113 1.725 51.44-10.1 64.884-5.034-8.883-11.591-16.721-19.314-23.192Zm-9.128-6.67c-5.04-3.188-10.439-5.85-16.118-7.935 3.023-4.749 6.936-9.236 11.557-13.19 7.948-6.806 17.701-11.844 28.401-14.809-7.722 8.303-17.096 20.451-23.84 35.934Zm.299 218.021c3.878-3.646 7.596-7.6 11.133-11.852 12.292-14.778 21.627-32.245 27.624-51.312 1.813.102 3.615.031 5.39-.201v95.968c-12.752-13.218-27.693-24.292-44.147-32.603ZM233.12 362.471c-28.8 0-55.992-13.684-76.567-38.53-20.819-25.142-32.44-58.711-32.721-94.528-.007-.774-.145-1.523-.381-2.231 11.3-7.298 24.75-12.116 39.199-13.989 17.454-2.26 33.722-8.436 47.042-17.858 10.535-7.445 18.86-16.649 24.472-26.975 12.896 23.556 39.882 40.747 71.495 44.833 7.969 1.029 15.713 2.977 23.013 5.788 5.23 2.02 10.166 4.467 14.748 7.291-.633 1.132-1.002 2.425-1.018 3.79-.416 35.676-12.096 69.09-32.888 94.087-20.555 24.713-47.686 38.322-76.396 38.322Zm0 11c23.236 0 45.468-7.907 64.584-22.652 4.346 2.029 8.584 4.266 12.706 6.691-20.222 24.711-47.952 38.767-76.908 38.767-28.75 0-56.465-14.101-76.872-38.895 3.935-2.31 7.975-4.448 12.113-6.395 19.067 14.641 41.219 22.484 64.377 22.484Zm124.97-108.239c-2.781 2.119-6.041 3.358-9.446 3.628 2.697-11.228 4.279-22.916 4.673-34.849 7.767 2.832 12.843 10.845 11.698 19.32-.644 4.762-3.103 8.989-6.925 11.901Zm-245.156-30.94c.408 11.812 1.979 23.374 4.644 34.493-3.132-.382-6.12-1.59-8.696-3.553-3.822-2.913-6.281-7.139-6.925-11.902-1.106-8.213 3.618-15.984 10.977-19.038Zm7.719 45.612c5.965 18.951 15.23 36.325 27.428 51.053 3.654 4.413 7.505 8.501 11.524 12.264-16.248 8.268-31.006 19.246-43.62 32.332v-95.892c1.539.202 3.098.29 4.668.243Zm270.154 110.902c-5.355 5.355-10.938 10.4-16.722 15.133-3.645-6.161-7.693-12.061-12.099-17.672v-112.42c.951-.567 1.878-1.185 2.771-1.866 6.159-4.693 10.122-11.504 11.158-19.179 1.335-9.888-2.59-19.381-9.605-25.602.85-6.115 1.307-12.347 1.307-18.584 0-21.671-5.278-43.102-15.259-62.168 9.8-19.934 10.225-46.001.226-69.889-.902-2.157-3.076-3.5-5.404-3.367-18.402 1.112-35.722 7.412-49.241 17.825-19.737-10.881-42.025-16.621-64.722-16.621-22.567 0-44.749 5.681-64.402 16.443-13.288-10.106-30.508-16.528-49.028-17.647-2.323-.129-4.503 1.21-5.405 3.368-9.962 23.819-9.566 49.794.144 69.699-10.045 19.133-15.349 40.614-15.349 62.358 0 6.264.441 12.551 1.303 18.737-6.906 6.221-10.749 15.637-9.424 25.448 1.036 7.674 4.999 14.485 11.158 19.179.891.679 1.823 1.281 2.771 1.846v112.367c-4.414 5.627-8.468 11.547-12.117 17.73-5.778-4.729-11.354-9.769-16.704-15.119C34.143 348.784 11 292.913 11 233.485c0-59.428 23.143-115.299 65.164-157.321C118.187 34.143 174.058 11 233.485 11s115.299 23.143 157.321 65.165c42.021 42.021 65.164 97.893 65.164 157.321 0 59.428-23.143 115.299-65.164 157.321Z"/>
</svg>
